<mxfile host="app.diagrams.net" modified="2023-07-19T13:14:21.710Z" agent="Mozilla/5.0 (Windows NT 10.0; Win64; x64) AppleWebKit/537.36 (KHTML, like Gecko) Chrome/114.0.0.0 Safari/537.36 OPR/100.0.0.0" version="21.6.3" etag="5q1w8LD38EvwNKrcjfP3" type="github">
  <diagram name="Page-1" id="oL9oLh1WMURAOaBQdBJC">
    <mxGraphModel>
      <root>
        <mxCell id="0" />
        <mxCell id="1" parent="0" />
      </root>
    </mxGraphModel>
  </diagram>
</mxfile>
